<svg width="27" height="26" viewBox="0 0 27 26" fill="none" xmlns="http://www.w3.org/2000/svg">
<path fill-rule="evenodd" clip-rule="evenodd" d="M9.08667 0H18.8367C23.3233 0 26.9617 3.63837 26.9617 8.125V17.875C26.9617 22.3616 23.3233 26 18.8367 26H9.08667C4.60004 26 0.96167 22.3616 0.96167 17.875V8.125C0.96167 3.63837 4.60004 0 9.08667 0ZM18.8367 23.5625C21.9729 23.5625 24.5242 21.0112 24.5242 17.875V8.125C24.5242 4.98875 21.9729 2.4375 18.8367 2.4375H9.08667C5.95042 2.4375 3.39917 4.98875 3.39917 8.125V17.875C3.39917 21.0112 5.95042 23.5625 9.08667 23.5625H18.8367Z" fill="#4D4B4B"/>
<path fill-rule="evenodd" clip-rule="evenodd" d="M7.46167 13C7.46167 9.41037 10.372 6.5 13.9617 6.5C17.5513 6.5 20.4617 9.41037 20.4617 13C20.4617 16.5896 17.5513 19.5 13.9617 19.5C10.372 19.5 7.46167 16.5896 7.46167 13ZM9.89917 13C9.89917 15.2393 11.7224 17.0625 13.9617 17.0625C16.2009 17.0625 18.0242 15.2393 18.0242 13C18.0242 10.7591 16.2009 8.9375 13.9617 8.9375C11.7224 8.9375 9.89917 10.7591 9.89917 13Z" fill="#4D4B4B"/>
<circle cx="20.9491" cy="6.01261" r="0.866125" fill="#4D4B4B"/>
</svg>
