<svg width="31" height="24" viewBox="0 0 31 24" fill="none" xmlns="http://www.w3.org/2000/svg">
<path d="M30.5001 2.84123C29.4017 3.32308 28.2312 3.64246 27.0109 3.79754C28.2663 3.048 29.2244 1.87015 29.6749 0.450462C28.5044 1.14831 27.2121 1.64123 25.8349 1.91631C24.7235 0.732923 23.1395 0 21.4115 0C18.0589 0 15.3598 2.72123 15.3598 6.05723C15.3598 6.53723 15.4004 6.99877 15.5001 7.43815C10.4657 7.19262 6.0109 4.77969 3.01829 1.104C2.49582 2.01046 2.18936 3.048 2.18936 4.16492C2.18936 6.26215 3.26936 8.12123 4.87921 9.19754C3.90629 9.17908 2.95182 8.89662 2.14321 8.45169C2.14321 8.47015 2.14321 8.49415 2.14321 8.51815C2.14321 11.4609 4.24229 13.9052 6.9949 14.4683C6.50198 14.6031 5.96475 14.6677 5.40721 14.6677C5.01952 14.6677 4.62813 14.6455 4.26075 14.5643C5.04536 16.9625 7.27182 18.7255 9.91921 18.7828C7.8589 20.3945 5.2429 21.3655 2.4109 21.3655C1.91429 21.3655 1.43798 21.3434 0.96167 21.2825C3.64413 23.0123 6.82321 24 10.2515 24C21.3949 24 27.4872 14.7692 27.4872 6.768C27.4872 6.50031 27.478 6.24185 27.4651 5.98523C28.6669 5.13231 29.6767 4.06708 30.5001 2.84123Z" fill="#3A6091"/>
</svg>
