<svg width="142" height="63" viewBox="0 0 142 63" fill="none" xmlns="http://www.w3.org/2000/svg">
<path opacity="0.52" d="M7.15 48C5.98333 48 5.08333 47.6833 4.45 47.05C3.81667 46.4167 3.5 45.5167 3.5 44.35V16.35C3.5 15.1833 3.85 14.25 4.55 13.55C5.25 12.85 6.2 12.5 7.4 12.5C8.6 12.5 9.55 12.85 10.25 13.55C10.95 14.25 11.3 15.1833 11.3 16.35V41.65H24.1C26.5333 41.65 27.75 42.7167 27.75 44.85C27.75 46.95 26.5333 48 24.1 48H7.15ZM45.8719 48.45C42.3719 48.45 39.3219 47.7167 36.7219 46.25C34.1552 44.75 32.1719 42.65 30.7719 39.95C29.3719 37.2167 28.6719 34.0167 28.6719 30.35C28.6719 26.6833 29.3719 23.5 30.7719 20.8C32.1719 18.0667 34.1552 15.9667 36.7219 14.5C39.3219 13.0333 42.3719 12.3 45.8719 12.3C49.3719 12.3 52.4052 13.0333 54.9719 14.5C57.5719 15.9667 59.5719 18.0667 60.9719 20.8C62.3719 23.5 63.0719 26.6833 63.0719 30.35C63.0719 34.0167 62.3719 37.2167 60.9719 39.95C59.5719 42.65 57.5719 44.75 54.9719 46.25C52.4052 47.7167 49.3719 48.45 45.8719 48.45ZM45.8719 42.4C48.8052 42.4 51.1052 41.3667 52.7719 39.3C54.4719 37.2333 55.3219 34.25 55.3219 30.35C55.3219 26.45 54.4885 23.4833 52.8219 21.45C51.1552 19.3833 48.8385 18.35 45.8719 18.35C42.9052 18.35 40.5885 19.3833 38.9219 21.45C37.2885 23.4833 36.4719 26.45 36.4719 30.35C36.4719 34.25 37.3052 37.2333 38.9719 39.3C40.6385 41.3667 42.9385 42.4 45.8719 42.4ZM96.2773 28.55C97.2107 28.55 97.944 28.8167 98.4773 29.35C99.044 29.85 99.3273 30.55 99.3273 31.45V41.2C99.3273 42.5333 99.2107 43.5667 98.9773 44.3C98.7773 45.0333 98.4107 45.6167 97.8773 46.05C97.344 46.4833 96.544 46.85 95.4773 47.15C94.1773 47.55 92.6773 47.8667 90.9773 48.1C89.3107 48.3333 87.7273 48.45 86.2273 48.45C82.494 48.45 79.2607 47.7333 76.5273 46.3C73.794 44.8333 71.694 42.75 70.2273 40.05C68.7607 37.3167 68.0273 34.0833 68.0273 30.35C68.0273 26.6833 68.744 23.5 70.1773 20.8C71.644 18.0667 73.7273 15.9667 76.4273 14.5C79.1273 13.0333 82.2773 12.3 85.8773 12.3C90.5107 12.3 94.344 13.5 97.3773 15.9C97.8773 16.3 98.2273 16.7 98.4273 17.1C98.6273 17.5 98.7273 18 98.7273 18.6C98.7273 19.4667 98.4773 20.2167 97.9773 20.85C97.5107 21.45 96.944 21.75 96.2773 21.75C95.844 21.75 95.444 21.6833 95.0773 21.55C94.744 21.4167 94.3273 21.2 93.8273 20.9C92.4273 20.0333 91.144 19.4167 89.9773 19.05C88.8107 18.6833 87.5273 18.5 86.1273 18.5C79.3273 18.5 75.9273 22.45 75.9273 30.35C75.9273 34.4167 76.8107 37.45 78.5773 39.45C80.344 41.45 83.0107 42.45 86.5773 42.45C88.5107 42.45 90.4273 42.2 92.3273 41.7V33.95H87.7273C86.7607 33.95 86.0107 33.7167 85.4773 33.25C84.944 32.7833 84.6773 32.1167 84.6773 31.25C84.6773 30.3833 84.944 29.7167 85.4773 29.25C86.0107 28.7833 86.7607 28.55 87.7273 28.55H96.2773ZM122.141 48.45C118.641 48.45 115.591 47.7167 112.991 46.25C110.425 44.75 108.441 42.65 107.041 39.95C105.641 37.2167 104.941 34.0167 104.941 30.35C104.941 26.6833 105.641 23.5 107.041 20.8C108.441 18.0667 110.425 15.9667 112.991 14.5C115.591 13.0333 118.641 12.3 122.141 12.3C125.641 12.3 128.675 13.0333 131.241 14.5C133.841 15.9667 135.841 18.0667 137.241 20.8C138.641 23.5 139.341 26.6833 139.341 30.35C139.341 34.0167 138.641 37.2167 137.241 39.95C135.841 42.65 133.841 44.75 131.241 46.25C128.675 47.7167 125.641 48.45 122.141 48.45ZM122.141 42.4C125.075 42.4 127.375 41.3667 129.041 39.3C130.741 37.2333 131.591 34.25 131.591 30.35C131.591 26.45 130.758 23.4833 129.091 21.45C127.425 19.3833 125.108 18.35 122.141 18.35C119.175 18.35 116.858 19.3833 115.191 21.45C113.558 23.4833 112.741 26.45 112.741 30.35C112.741 34.25 113.575 37.2333 115.241 39.3C116.908 41.3667 119.208 42.4 122.141 42.4Z" fill="#4D4B4B"/>
</svg>
