<svg width="34" height="27" viewBox="0 0 34 27" fill="none" xmlns="http://www.w3.org/2000/svg">
<path d="M30.5001 4.84123C29.4017 5.32308 28.2312 5.64246 27.0109 5.79754C28.2663 5.048 29.2244 3.87015 29.6749 2.45046C28.5044 3.14831 27.2121 3.64123 25.8349 3.91631C24.7235 2.73292 23.1395 2 21.4115 2C18.0589 2 15.3598 4.72123 15.3598 8.05723C15.3598 8.53723 15.4004 8.99877 15.5001 9.43815C10.4657 9.19262 6.0109 6.77969 3.01829 3.104C2.49582 4.01046 2.18936 5.048 2.18936 6.16492C2.18936 8.26215 3.26936 10.1212 4.87921 11.1975C3.90629 11.1791 2.95182 10.8966 2.14321 10.4517C2.14321 10.4702 2.14321 10.4942 2.14321 10.5182C2.14321 13.4609 4.24229 15.9052 6.9949 16.4683C6.50198 16.6031 5.96475 16.6677 5.40721 16.6677C5.01952 16.6677 4.62813 16.6455 4.26075 16.5643C5.04536 18.9625 7.27182 20.7255 9.91921 20.7828C7.8589 22.3945 5.2429 23.3655 2.4109 23.3655C1.91429 23.3655 1.43798 23.3434 0.96167 23.2825C3.64413 25.0123 6.82321 26 10.2515 26C21.3949 26 27.4872 16.7692 27.4872 8.768C27.4872 8.50031 27.478 8.24185 27.4651 7.98523C28.6669 7.13231 29.6767 6.06708 30.5001 4.84123Z" stroke="#4D4B4B" stroke-width="2"/>
</svg>
