<svg width="26" height="26" viewBox="0 0 26 26" fill="none" xmlns="http://www.w3.org/2000/svg">
<path d="M26 6.5L26 19.5C26 23.0899 23.0899 26 19.5 26L6.5 26C2.91015 26 0 23.0899 0 19.5L0 6.5C0 2.91015 2.91015 0 6.5 0L19.5 0C23.0899 0 26 2.91015 26 6.5Z" fill="#3A6091"/>
<path d="M13.8191 7.79979C12.7372 7.63936 11.6322 7.82416 10.6614 8.32791C9.69054 8.83166 8.90326 9.6287 8.41152 10.6057C7.91978 11.5827 7.74862 12.6898 7.92239 13.7697C8.09615 14.8495 8.60599 15.8471 9.37939 16.6205C10.1528 17.3939 11.1504 17.9037 12.2302 18.0775C13.3101 18.2513 14.4172 18.0801 15.3942 17.5884C16.3712 17.0966 17.1682 16.3094 17.672 15.3385C18.1757 14.3677 18.3605 13.2627 18.2001 12.1808C18.0364 11.0772 17.5222 10.0555 16.7333 9.26659C15.9444 8.4777 14.9227 7.96344 13.8191 7.79979Z" stroke="white" stroke-width="2" stroke-linecap="round" stroke-linejoin="round"/>
<path d="M20.1501 5.8501V5.8371" stroke="white" stroke-width="2" stroke-linecap="round" stroke-linejoin="round"/>
</svg>
