<svg width="50" height="16" viewBox="0 0 50 16" fill="none" xmlns="http://www.w3.org/2000/svg">
<path d="M3.19922 12.6465H9.41992V15H0.269531V0.78125H3.19922V12.6465ZM22.1641 8.21289C22.1641 9.61263 21.9167 10.8398 21.4219 11.8945C20.9271 12.9492 20.2174 13.763 19.293 14.3359C18.375 14.9089 17.3203 15.1953 16.1289 15.1953C14.9505 15.1953 13.8991 14.9121 12.9746 14.3457C12.0501 13.7793 11.334 12.972 10.8262 11.9238C10.3184 10.8691 10.0612 9.6582 10.0547 8.29102V7.58789C10.0547 6.18815 10.3053 4.95768 10.8066 3.89648C11.3145 2.82878 12.0273 2.01172 12.9453 1.44531C13.8698 0.872396 14.9245 0.585938 16.1094 0.585938C17.2943 0.585938 18.3457 0.872396 19.2637 1.44531C20.1882 2.01172 20.901 2.82878 21.4023 3.89648C21.9102 4.95768 22.1641 6.1849 22.1641 7.57812V8.21289ZM19.1953 7.56836C19.1953 6.07747 18.9284 4.94466 18.3945 4.16992C17.8607 3.39518 17.099 3.00781 16.1094 3.00781C15.1263 3.00781 14.3678 3.39193 13.834 4.16016C13.3001 4.92188 13.0299 6.04167 13.0234 7.51953V8.21289C13.0234 9.66471 13.2904 10.791 13.8242 11.5918C14.3581 12.3926 15.1263 12.793 16.1289 12.793C17.112 12.793 17.8672 12.4089 18.3945 11.6406C18.9219 10.8659 19.1888 9.73958 19.1953 8.26172V7.56836ZM35.543 13.2031C35.0156 13.8346 34.2702 14.3262 33.3066 14.6777C32.3431 15.0228 31.2754 15.1953 30.1035 15.1953C28.873 15.1953 27.7923 14.9284 26.8613 14.3945C25.9368 13.8542 25.2207 13.0729 24.7129 12.0508C24.2116 11.0286 23.9544 9.82747 23.9414 8.44727V7.48047C23.9414 6.0612 24.179 4.83398 24.6543 3.79883C25.1361 2.75716 25.8262 1.96289 26.7246 1.41602C27.6296 0.86263 28.6875 0.585938 29.8984 0.585938C31.5846 0.585938 32.903 0.989583 33.8535 1.79688C34.804 2.59766 35.3672 3.76628 35.543 5.30273H32.6914C32.5612 4.48893 32.2715 3.89323 31.8223 3.51562C31.3796 3.13802 30.7676 2.94922 29.9863 2.94922C28.9902 2.94922 28.2318 3.32357 27.7109 4.07227C27.1901 4.82096 26.9264 5.93424 26.9199 7.41211V8.32031C26.9199 9.8112 27.2031 10.9375 27.7695 11.6992C28.3359 12.4609 29.166 12.8418 30.2598 12.8418C31.36 12.8418 32.1445 12.6074 32.6133 12.1387V9.6875H29.9473V7.5293H35.543V13.2031ZM49.6055 8.21289C49.6055 9.61263 49.3581 10.8398 48.8633 11.8945C48.3685 12.9492 47.6589 13.763 46.7344 14.3359C45.8164 14.9089 44.7617 15.1953 43.5703 15.1953C42.3919 15.1953 41.3405 14.9121 40.416 14.3457C39.4915 13.7793 38.7754 12.972 38.2676 11.9238C37.7598 10.8691 37.5026 9.6582 37.4961 8.29102V7.58789C37.4961 6.18815 37.7467 4.95768 38.248 3.89648C38.7559 2.82878 39.4688 2.01172 40.3867 1.44531C41.3112 0.872396 42.3659 0.585938 43.5508 0.585938C44.7357 0.585938 45.7871 0.872396 46.7051 1.44531C47.6296 2.01172 48.3424 2.82878 48.8438 3.89648C49.3516 4.95768 49.6055 6.1849 49.6055 7.57812V8.21289ZM46.6367 7.56836C46.6367 6.07747 46.3698 4.94466 45.8359 4.16992C45.3021 3.39518 44.5404 3.00781 43.5508 3.00781C42.5677 3.00781 41.8092 3.39193 41.2754 4.16016C40.7415 4.92188 40.4714 6.04167 40.4648 7.51953V8.21289C40.4648 9.66471 40.7318 10.791 41.2656 11.5918C41.7995 12.3926 42.5677 12.793 43.5703 12.793C44.5534 12.793 45.3086 12.4089 45.8359 11.6406C46.3633 10.8659 46.6302 9.73958 46.6367 8.26172V7.56836Z" fill="#629181"/>
</svg>
