<svg width="100" height="30" viewBox="0 0 100 30" fill="none" xmlns="http://www.w3.org/2000/svg">
<path d="M6.39844 24.293H18.8398V29H0.539062V0.5625H6.39844V24.293ZM44.3281 15.4258C44.3281 18.2253 43.8333 20.6797 42.8438 22.7891C41.8542 24.8984 40.4349 26.526 38.5859 27.6719C36.75 28.8177 34.6406 29.3906 32.2578 29.3906C29.901 29.3906 27.7982 28.8242 25.9492 27.6914C24.1003 26.5586 22.668 24.944 21.6523 22.8477C20.6367 20.7383 20.1224 18.3164 20.1094 15.582V14.1758C20.1094 11.3763 20.6107 8.91536 21.6133 6.79297C22.6289 4.65755 24.0547 3.02344 25.8906 1.89062C27.7396 0.744792 29.849 0.171875 32.2188 0.171875C34.5885 0.171875 36.6914 0.744792 38.5273 1.89062C40.3763 3.02344 41.8021 4.65755 42.8047 6.79297C43.8203 8.91536 44.3281 11.3698 44.3281 14.1562V15.4258ZM38.3906 14.1367C38.3906 11.1549 37.8568 8.88932 36.7891 7.33984C35.7214 5.79036 34.1979 5.01562 32.2188 5.01562C30.2526 5.01562 28.7357 5.78385 27.668 7.32031C26.6003 8.84375 26.0599 11.0833 26.0469 14.0391V15.4258C26.0469 18.3294 26.5807 20.582 27.6484 22.1836C28.7161 23.7852 30.2526 24.5859 32.2578 24.5859C34.224 24.5859 35.7344 23.8177 36.7891 22.2812C37.8438 20.7318 38.3776 18.4792 38.3906 15.5234V14.1367ZM71.0859 25.4062C70.0312 26.6693 68.5404 27.6523 66.6133 28.3555C64.6862 29.0456 62.5508 29.3906 60.207 29.3906C57.7461 29.3906 55.5846 28.8568 53.7227 27.7891C51.8737 26.7083 50.4414 25.1458 49.4258 23.1016C48.4232 21.0573 47.9089 18.6549 47.8828 15.8945V13.9609C47.8828 11.1224 48.3581 8.66797 49.3086 6.59766C50.2721 4.51432 51.6523 2.92578 53.4492 1.83203C55.2591 0.72526 57.375 0.171875 59.7969 0.171875C63.1693 0.171875 65.806 0.979167 67.707 2.59375C69.6081 4.19531 70.7344 6.53255 71.0859 9.60547H65.3828C65.1224 7.97786 64.543 6.78646 63.6445 6.03125C62.7591 5.27604 61.5352 4.89844 59.9727 4.89844C57.9805 4.89844 56.4635 5.64714 55.4219 7.14453C54.3802 8.64193 53.8529 10.8685 53.8398 13.8242V15.6406C53.8398 18.6224 54.4062 20.875 55.5391 22.3984C56.6719 23.9219 58.332 24.6836 60.5195 24.6836C62.7201 24.6836 64.2891 24.2148 65.2266 23.2773V18.375H59.8945V14.0586H71.0859V25.4062ZM99.2109 15.4258C99.2109 18.2253 98.7161 20.6797 97.7266 22.7891C96.737 24.8984 95.3177 26.526 93.4688 27.6719C91.6328 28.8177 89.5234 29.3906 87.1406 29.3906C84.7839 29.3906 82.681 28.8242 80.832 27.6914C78.9831 26.5586 77.5508 24.944 76.5352 22.8477C75.5195 20.7383 75.0052 18.3164 74.9922 15.582V14.1758C74.9922 11.3763 75.4935 8.91536 76.4961 6.79297C77.5117 4.65755 78.9375 3.02344 80.7734 1.89062C82.6224 0.744792 84.7318 0.171875 87.1016 0.171875C89.4714 0.171875 91.5742 0.744792 93.4102 1.89062C95.2591 3.02344 96.6849 4.65755 97.6875 6.79297C98.7031 8.91536 99.2109 11.3698 99.2109 14.1562V15.4258ZM93.2734 14.1367C93.2734 11.1549 92.7396 8.88932 91.6719 7.33984C90.6042 5.79036 89.0807 5.01562 87.1016 5.01562C85.1354 5.01562 83.6185 5.78385 82.5508 7.32031C81.4831 8.84375 80.9427 11.0833 80.9297 14.0391V15.4258C80.9297 18.3294 81.4635 20.582 82.5312 22.1836C83.599 23.7852 85.1354 24.5859 87.1406 24.5859C89.1068 24.5859 90.6172 23.8177 91.6719 22.2812C92.7266 20.7318 93.2604 18.4792 93.2734 15.5234V14.1367Z" fill="#629181"/>
</svg>
