<svg width="16" height="15" viewBox="0 0 16 15" fill="none" xmlns="http://www.w3.org/2000/svg">
<path d="M7.79865 11.875C7.9246 11.875 8.04772 11.8383 8.15245 11.7697C8.25717 11.701 8.3388 11.6034 8.387 11.4892C8.4352 11.375 8.44781 11.2493 8.42324 11.1281C8.39866 11.0068 8.33801 10.8955 8.24895 10.8081C8.15989 10.7206 8.04642 10.6611 7.92289 10.637C7.79935 10.6129 7.67131 10.6253 7.55495 10.6726C7.43858 10.7199 7.33912 10.8 7.26915 10.9028C7.19917 11.0055 7.16182 11.1264 7.16182 11.25C7.16182 11.4158 7.22892 11.5747 7.34835 11.6919C7.46777 11.8092 7.62975 11.875 7.79865 11.875ZM10.9828 11.875C11.1087 11.875 11.2318 11.8383 11.3366 11.7697C11.4413 11.701 11.5229 11.6034 11.5711 11.4892C11.6193 11.375 11.6319 11.2493 11.6074 11.1281C11.5828 11.0068 11.5221 10.8955 11.4331 10.8081C11.344 10.7206 11.2305 10.6611 11.107 10.637C10.9835 10.6129 10.8554 10.6253 10.7391 10.6726C10.6227 10.7199 10.5232 10.8 10.4533 10.9028C10.3833 11.0055 10.3459 11.1264 10.3459 11.25C10.3459 11.4158 10.413 11.5747 10.5325 11.6919C10.6519 11.8092 10.8139 11.875 10.9828 11.875ZM10.9828 9.375C11.1087 9.375 11.2318 9.33834 11.3366 9.26967C11.4413 9.20099 11.5229 9.10338 11.5711 8.98918C11.6193 8.87497 11.6319 8.74931 11.6074 8.62807C11.5828 8.50683 11.5221 8.39547 11.4331 8.30806C11.344 8.22065 11.2305 8.16112 11.107 8.13701C10.9835 8.11289 10.8554 8.12527 10.7391 8.17257C10.6227 8.21988 10.5232 8.29999 10.4533 8.40277C10.3833 8.50555 10.3459 8.62639 10.3459 8.75C10.3459 8.91576 10.413 9.07473 10.5325 9.19194C10.6519 9.30915 10.8139 9.375 10.9828 9.375ZM7.79865 9.375C7.9246 9.375 8.04772 9.33834 8.15245 9.26967C8.25717 9.20099 8.3388 9.10338 8.387 8.98918C8.4352 8.87497 8.44781 8.74931 8.42324 8.62807C8.39866 8.50683 8.33801 8.39547 8.24895 8.30806C8.15989 8.22065 8.04642 8.16112 7.92289 8.13701C7.79935 8.11289 7.67131 8.12527 7.55495 8.17257C7.43858 8.21988 7.33912 8.29999 7.26915 8.40277C7.19917 8.50555 7.16182 8.62639 7.16182 8.75C7.16182 8.91576 7.22892 9.07473 7.34835 9.19194C7.46777 9.30915 7.62975 9.375 7.79865 9.375ZM12.2564 1.875H11.6196V1.25C11.6196 1.08424 11.5525 0.925268 11.4331 0.808058C11.3136 0.690848 11.1517 0.625 10.9828 0.625C10.8139 0.625 10.6519 0.690848 10.5325 0.808058C10.413 0.925268 10.3459 1.08424 10.3459 1.25V1.875H5.25135V1.25C5.25135 1.08424 5.18426 0.925268 5.06483 0.808058C4.9454 0.690848 4.78342 0.625 4.61453 0.625C4.44563 0.625 4.28365 0.690848 4.16422 0.808058C4.0448 0.925268 3.9777 1.08424 3.9777 1.25V1.875H3.34088C2.83419 1.875 2.34825 2.07254 1.98997 2.42417C1.63169 2.77581 1.4304 3.25272 1.4304 3.75V12.5C1.4304 12.9973 1.63169 13.4742 1.98997 13.8258C2.34825 14.1775 2.83419 14.375 3.34088 14.375H12.2564C12.7631 14.375 13.249 14.1775 13.6073 13.8258C13.9656 13.4742 14.1669 12.9973 14.1669 12.5V3.75C14.1669 3.25272 13.9656 2.77581 13.6073 2.42417C13.249 2.07254 12.7631 1.875 12.2564 1.875ZM12.8932 12.5C12.8932 12.6658 12.8261 12.8247 12.7067 12.9419C12.5873 13.0592 12.4253 13.125 12.2564 13.125H3.34088C3.17198 13.125 3.01 13.0592 2.89057 12.9419C2.77115 12.8247 2.70405 12.6658 2.70405 12.5V6.875H12.8932V12.5ZM12.8932 5.625H2.70405V3.75C2.70405 3.58424 2.77115 3.42527 2.89057 3.30806C3.01 3.19085 3.17198 3.125 3.34088 3.125H3.9777V3.75C3.9777 3.91576 4.0448 4.07473 4.16422 4.19194C4.28365 4.30915 4.44563 4.375 4.61453 4.375C4.78342 4.375 4.9454 4.30915 5.06483 4.19194C5.18426 4.07473 5.25135 3.91576 5.25135 3.75V3.125H10.3459V3.75C10.3459 3.91576 10.413 4.07473 10.5325 4.19194C10.6519 4.30915 10.8139 4.375 10.9828 4.375C11.1517 4.375 11.3136 4.30915 11.4331 4.19194C11.5525 4.07473 11.6196 3.91576 11.6196 3.75V3.125H12.2564C12.4253 3.125 12.5873 3.19085 12.7067 3.30806C12.8261 3.42527 12.8932 3.58424 12.8932 3.75V5.625ZM4.61453 9.375C4.74048 9.375 4.8636 9.33834 4.96833 9.26967C5.07305 9.20099 5.15468 9.10338 5.20288 8.98918C5.25108 8.87497 5.26369 8.74931 5.23911 8.62807C5.21454 8.50683 5.15389 8.39547 5.06483 8.30806C4.97577 8.22065 4.8623 8.16112 4.73876 8.13701C4.61523 8.11289 4.48719 8.12527 4.37082 8.17257C4.25446 8.21988 4.155 8.29999 4.08503 8.40277C4.01505 8.50555 3.9777 8.62639 3.9777 8.75C3.9777 8.91576 4.0448 9.07473 4.16422 9.19194C4.28365 9.30915 4.44563 9.375 4.61453 9.375ZM4.61453 11.875C4.74048 11.875 4.8636 11.8383 4.96833 11.7697C5.07305 11.701 5.15468 11.6034 5.20288 11.4892C5.25108 11.375 5.26369 11.2493 5.23911 11.1281C5.21454 11.0068 5.15389 10.8955 5.06483 10.8081C4.97577 10.7206 4.8623 10.6611 4.73876 10.637C4.61523 10.6129 4.48719 10.6253 4.37082 10.6726C4.25446 10.7199 4.155 10.8 4.08503 10.9028C4.01505 11.0055 3.9777 11.1264 3.9777 11.25C3.9777 11.4158 4.0448 11.5747 4.16422 11.6919C4.28365 11.8092 4.44563 11.875 4.61453 11.875Z" fill="#ECD662"/>
</svg>
