<svg width="21" height="24" viewBox="0 0 21 24" fill="none" xmlns="http://www.w3.org/2000/svg">
<path d="M19.3234 23.1524C18.6458 22.1918 18.1276 21.1282 17.7886 20.0026C18.4833 19.3984 18.9756 18.5955 19.1991 17.7024C19.4226 16.8093 19.3663 15.8691 19.0381 15.009C18.7098 14.1489 18.1253 13.4104 17.3636 12.8933C16.6019 12.3762 15.6997 12.1056 14.7792 12.1179H13.7761C13.7303 10.355 14.1213 8.60819 14.9142 7.033C15.707 5.4578 16.8771 4.10314 18.3203 3.08965C18.3203 3.08965 9.29202 -0.922903 5.27947 8.10534C3.87711 6.03941 3.17395 3.57834 3.27319 1.08337C-1.7425 10.1116 3.27319 21.1461 14.8093 21.1461C15.0887 21.1452 15.3674 21.1184 15.6419 21.0659C16.6516 22.0897 17.9263 22.8122 19.3234 23.1524V23.1524Z" stroke="#4F4F4F" stroke-width="1.5" stroke-linecap="round" stroke-linejoin="round"/>
</svg>
