<svg width="21" height="20" viewBox="0 0 21 20" fill="none" xmlns="http://www.w3.org/2000/svg">
<path d="M19.3335 14.5834L19.3335 5.58337C19.3335 3.09809 17.3188 1.08337 14.8335 1.08337L5.8335 1.08337C3.34822 1.08337 1.3335 3.09809 1.3335 5.58337L1.3335 14.5834C1.3335 17.0687 3.34822 19.0834 5.8335 19.0834L14.8335 19.0834C17.3188 19.0834 19.3335 17.0687 19.3335 14.5834Z" stroke="#4F4F4F" stroke-width="1.5" stroke-linecap="round" stroke-linejoin="round"/>
<path d="M10.9007 13.6834C10.1517 13.7945 9.38672 13.6666 8.7146 13.3178C8.04248 12.9691 7.49744 12.4173 7.15701 11.7409C6.81657 11.0645 6.69808 10.298 6.81837 9.55043C6.93867 8.80283 7.29164 8.1122 7.82707 7.57677C8.3625 7.04134 9.05313 6.68838 9.80072 6.56808C10.5483 6.44778 11.3148 6.56628 11.9912 6.90671C12.6675 7.24715 13.2193 7.79219 13.5681 8.4643C13.9168 9.13642 14.0448 9.9014 13.9337 10.6504C13.8204 11.4144 13.4644 12.1218 12.9182 12.6679C12.3721 13.2141 11.6647 13.5701 10.9007 13.6834Z" stroke="#4F4F4F" stroke-width="1.5" stroke-linecap="round" stroke-linejoin="round"/>
<path d="M15.2837 15.0334V15.0424" stroke="#4F4F4F" stroke-width="2.66667" stroke-linecap="round" stroke-linejoin="round"/>
</svg>
