<svg width="19" height="23" viewBox="0 0 19 23" fill="none" xmlns="http://www.w3.org/2000/svg">
<path d="M18.3234 22.1524C17.6458 21.1918 17.1276 20.1282 16.7886 19.0026C17.4833 18.3984 17.9756 17.5955 18.1991 16.7024C18.4226 15.8093 18.3663 14.8691 18.0381 14.009C17.7098 13.1489 17.1253 12.4104 16.3636 11.8933C15.6019 11.3762 14.6997 11.1056 13.7792 11.1179H12.7761C12.7303 9.35502 13.1213 7.60819 13.9142 6.033C14.707 4.4578 15.8771 3.10314 17.3203 2.08965C17.3203 2.08965 8.29202 -1.9229 4.27947 7.10534C2.87711 5.03941 2.17395 2.57834 2.27319 0.083374C-2.7425 9.11162 2.27319 20.1461 13.8093 20.1461C14.0887 20.1452 14.3674 20.1184 14.6419 20.0659C15.6516 21.0897 16.9263 21.8122 18.3234 22.1524Z" fill="#5C5C5C"/>
</svg>
