<svg width="19" height="19" viewBox="0 0 19 19" fill="none" xmlns="http://www.w3.org/2000/svg">
<path d="M18.3335 13.5834L18.3335 4.58337C18.3335 2.09809 16.3188 0.083374 13.8335 0.083374L4.8335 0.083374C2.34822 0.083374 0.333496 2.09809 0.333496 4.58337L0.333496 13.5834C0.333496 16.0687 2.34822 18.0834 4.8335 18.0834L13.8335 18.0834C16.3188 18.0834 18.3335 16.0687 18.3335 13.5834Z" fill="#5C5C5C"/>
<path d="M9.90071 12.6834C9.15169 12.7945 8.38672 12.6666 7.7146 12.3178C7.04248 11.9691 6.49744 11.4173 6.15701 10.7409C5.81657 10.0645 5.69808 9.29802 5.81837 8.55043C5.93867 7.80283 6.29164 7.1122 6.82707 6.57677C7.3625 6.04134 8.05313 5.68838 8.80072 5.56808C9.54832 5.44778 10.3148 5.56628 10.9912 5.90671C11.6675 6.24715 12.2193 6.79219 12.5681 7.4643C12.9168 8.13642 13.0448 8.9014 12.9337 9.65042C12.8204 10.4144 12.4644 11.1218 11.9182 11.6679C11.3721 12.2141 10.6647 12.5701 9.90071 12.6834Z" stroke="white" stroke-width="2" stroke-linecap="round" stroke-linejoin="round"/>
<path d="M14.2837 14.0334V14.0424" stroke="white" stroke-width="2" stroke-linecap="round" stroke-linejoin="round"/>
</svg>
